<svg id="Capa_1" enable-background="new 0 0 512.013 512.013" height="512" viewBox="0 0 512.013 512.013" width="512" xmlns="http://www.w3.org/2000/svg"><g><path d="m405.971 149.966-149.964-149.966-20 299.93 20 212.083c116.943 0 212.083-95.14 212.083-212.083 0-56.649-22.061-109.908-62.119-149.964z" fill="#d10050"/><path d="m106.042 149.965c-40.058 40.057-62.118 93.316-62.118 149.965 0 116.943 95.14 212.083 212.083 212.083v-512.013z" fill="#ff415b"/><path d="m256.007 147.848-20 152.083 20 152.083c83.858 0 152.083-68.224 152.083-152.083s-68.225-152.083-152.083-152.083z" fill="#ff415b"/><path d="m103.924 299.931c0 83.858 68.225 152.083 152.083 152.083v-304.166c-83.859 0-152.083 68.224-152.083 152.083z" fill="#ff8859"/><path d="m256.007 177.848-20 122.083 20 122.083c67.316 0 122.083-54.766 122.083-122.083s-54.767-122.083-122.083-122.083z" fill="#ece6f2"/><path d="m133.924 299.931c0 67.316 54.767 122.083 122.083 122.083v-244.166c-67.317 0-122.083 54.766-122.083 122.083z" fill="#fff5f5"/><path d="m181.007 284.931h30v30h-30z" fill="#ff415b"/><path d="m241.007 284.931h30v30h-30z" fill="#80aaff"/><path d="m301.007 284.931h30v30h-30z" fill="#24b3b3"/></g></svg>